<svg xmlns="http://www.w3.org/2000/svg" id="b"  width="100px" height="100px" fill="#000" viewBox="0 0 48 48">
  <g id="SVGRepo_iconCarrier">
    <defs>
      <style>
        .c{fill:#db9a64}.d{fill:none;stroke:#db9a64;stroke-linecap:round;stroke-linejoin:round}
      </style>
    </defs>
    <path d="M14.25 20.8401v-5.4269M11.5366 18.1267h5.4268M17.1869 10.8372V9.2244c0-.581-.471-1.052-1.052-1.052h-3.7698c-.581 0-1.052.471-1.052 1.052v1.7708" class="d"/>
    <path d="m29.0435 24.8808 4.5534 6.83c1.485 2.2276 4.377 3.0323 6.7991 1.8919 2.2669-1.0672 3.5041-3.5476 2.9874-5.9993-.9842-4.6705-1.7692-9.0259-2.5726-11.9826-.8457-3.1124-3.8836-5.2804-7.2842-5.2804-2.0521 0-3.9114.8108-5.2876 2.1236h-8.4779c-1.3763-1.3128-3.2355-2.1236-5.2876-2.1236-3.4006 0-6.4386 2.1681-7.2842 5.2804-.8034 2.9567-1.5884 7.3122-2.5726 11.9826-.5167 2.4517.7205 4.9321 2.9874 5.9993 2.4221 1.1404 5.3141.3357 6.7991-1.8919l4.5534-6.83h10.087Z" class="d"/>
    <path d="M30.8131 10.8372V9.2244c0-.581.471-1.052 1.052-1.052h3.7698c.581 0 1.052.471 1.052 1.052v1.7708" class="d"/>
    <circle cx="31.03" cy="18.1267" r=".75" class="c"/>
    <circle cx="36.4634" cy="18.1267" r=".75" class="c"/>
    <circle cx="33.75" cy="15.4132" r=".75" class="c"/>
    <circle cx="33.75" cy="20.8401" r=".785" class="c"/>
  </g>
</svg>