<svg xmlns="http://www.w3.org/2000/svg" xmlns:xlink="http://www.w3.org/1999/xlink" width="373" zoomAndPan="magnify" viewBox="0 0 279.75 92.999996" height="124" preserveAspectRatio="xMidYMid meet" version="1.0"><defs><g/></defs><path fill="#db9a64" d="M 43.628906 31.703125 L 41.058594 31.703125 L 41.058594 29.132812 C 41.058594 28.867188 41.035156 28.605469 40.980469 28.34375 C 40.929688 28.085938 40.851562 27.832031 40.753906 27.589844 C 40.652344 27.34375 40.527344 27.109375 40.378906 26.890625 C 40.230469 26.671875 40.0625 26.464844 39.875 26.277344 C 39.6875 26.089844 39.484375 25.925781 39.265625 25.777344 C 39.042969 25.628906 38.8125 25.503906 38.566406 25.402344 C 38.324219 25.300781 38.070312 25.226562 37.8125 25.171875 C 37.550781 25.121094 37.289062 25.09375 37.023438 25.09375 L 32.617188 25.09375 C 32.351562 25.09375 32.089844 25.121094 31.832031 25.171875 C 31.570312 25.226562 31.316406 25.300781 31.074219 25.402344 C 30.828125 25.503906 30.597656 25.628906 30.375 25.777344 C 30.15625 25.925781 29.953125 26.089844 29.765625 26.277344 C 29.578125 26.464844 29.410156 26.671875 29.261719 26.890625 C 29.113281 27.109375 28.992188 27.34375 28.890625 27.589844 C 28.789062 27.832031 28.710938 28.085938 28.660156 28.34375 C 28.605469 28.605469 28.582031 28.867188 28.582031 29.132812 L 28.582031 31.703125 L 26.011719 31.703125 C 25.746094 31.703125 25.484375 31.730469 25.222656 31.78125 C 24.964844 31.832031 24.710938 31.910156 24.464844 32.011719 C 24.222656 32.113281 23.988281 32.238281 23.769531 32.382812 C 23.546875 32.53125 23.34375 32.699219 23.15625 32.886719 C 22.96875 33.074219 22.800781 33.277344 22.65625 33.5 C 22.507812 33.71875 22.382812 33.949219 22.28125 34.195312 C 22.179688 34.441406 22.105469 34.691406 22.050781 34.953125 C 22 35.210938 21.972656 35.476562 21.972656 35.738281 L 21.972656 40.144531 C 21.972656 40.410156 22 40.671875 22.050781 40.933594 C 22.105469 41.191406 22.179688 41.445312 22.28125 41.691406 C 22.382812 41.933594 22.507812 42.167969 22.65625 42.386719 C 22.800781 42.609375 22.96875 42.8125 23.15625 43 C 23.34375 43.1875 23.546875 43.351562 23.769531 43.5 C 23.988281 43.648438 24.222656 43.773438 24.464844 43.875 C 24.710938 43.976562 24.964844 44.050781 25.222656 44.105469 C 25.484375 44.15625 25.746094 44.183594 26.011719 44.183594 L 28.582031 44.183594 L 28.582031 46.753906 C 28.582031 47.019531 28.605469 47.28125 28.660156 47.539062 C 28.710938 47.800781 28.789062 48.050781 28.890625 48.296875 C 28.992188 48.542969 29.113281 48.773438 29.261719 48.996094 C 29.410156 49.214844 29.578125 49.417969 29.765625 49.605469 C 29.953125 49.792969 30.15625 49.960938 30.375 50.109375 C 30.597656 50.253906 30.828125 50.378906 31.074219 50.480469 C 31.316406 50.582031 31.570312 50.660156 31.832031 50.710938 C 32.089844 50.761719 32.351562 50.789062 32.617188 50.789062 L 37.023438 50.789062 C 37.289062 50.789062 37.550781 50.761719 37.808594 50.710938 C 38.070312 50.660156 38.324219 50.582031 38.566406 50.480469 C 38.8125 50.378906 39.042969 50.253906 39.265625 50.109375 C 39.484375 49.960938 39.6875 49.792969 39.875 49.605469 C 40.0625 49.417969 40.230469 49.214844 40.378906 48.996094 C 40.527344 48.773438 40.648438 48.542969 40.75 48.296875 C 40.851562 48.050781 40.929688 47.800781 40.980469 47.539062 C 41.035156 47.28125 41.058594 47.019531 41.058594 46.753906 L 41.058594 44.183594 L 43.628906 44.183594 C 43.894531 44.183594 44.15625 44.15625 44.417969 44.105469 C 44.675781 44.050781 44.929688 43.976562 45.175781 43.875 C 45.417969 43.773438 45.652344 43.648438 45.871094 43.5 C 46.09375 43.351562 46.296875 43.1875 46.484375 43 C 46.671875 42.8125 46.839844 42.609375 46.984375 42.386719 C 47.132812 42.167969 47.257812 41.933594 47.359375 41.691406 C 47.460938 41.445312 47.539062 41.191406 47.589844 40.933594 C 47.640625 40.671875 47.667969 40.410156 47.667969 40.144531 L 47.667969 35.738281 C 47.667969 35.476562 47.640625 35.210938 47.589844 34.953125 C 47.539062 34.691406 47.460938 34.441406 47.359375 34.195312 C 47.257812 33.949219 47.132812 33.71875 46.984375 33.5 C 46.839844 33.277344 46.671875 33.074219 46.484375 32.886719 C 46.296875 32.699219 46.09375 32.53125 45.871094 32.382812 C 45.652344 32.238281 45.417969 32.113281 45.175781 32.011719 C 44.929688 31.910156 44.675781 31.832031 44.417969 31.78125 C 44.15625 31.730469 43.894531 31.703125 43.628906 31.703125 Z M 43.996094 40.144531 C 43.996094 40.246094 43.960938 40.332031 43.890625 40.40625 C 43.816406 40.476562 43.730469 40.511719 43.628906 40.511719 L 39.226562 40.511719 C 38.980469 40.511719 38.746094 40.558594 38.523438 40.652344 C 38.296875 40.746094 38.097656 40.878906 37.925781 41.050781 C 37.753906 41.222656 37.621094 41.421875 37.53125 41.644531 C 37.4375 41.871094 37.390625 42.105469 37.390625 42.347656 L 37.390625 46.753906 C 37.390625 46.855469 37.355469 46.941406 37.28125 47.011719 C 37.210938 47.082031 37.125 47.121094 37.023438 47.121094 L 32.617188 47.121094 C 32.515625 47.121094 32.429688 47.082031 32.359375 47.011719 C 32.285156 46.941406 32.25 46.855469 32.25 46.753906 L 32.25 42.347656 C 32.25 42.105469 32.203125 41.871094 32.113281 41.644531 C 32.019531 41.421875 31.886719 41.222656 31.714844 41.050781 C 31.542969 40.878906 31.34375 40.746094 31.117188 40.652344 C 30.894531 40.558594 30.660156 40.511719 30.414062 40.511719 L 26.011719 40.511719 C 25.910156 40.511719 25.824219 40.476562 25.75 40.40625 C 25.679688 40.332031 25.644531 40.246094 25.644531 40.144531 L 25.644531 35.738281 C 25.644531 35.640625 25.679688 35.550781 25.75 35.480469 C 25.824219 35.410156 25.910156 35.375 26.011719 35.375 L 30.414062 35.375 C 30.660156 35.375 30.894531 35.328125 31.117188 35.234375 C 31.34375 35.140625 31.542969 35.007812 31.714844 34.835938 C 31.886719 34.664062 32.019531 34.464844 32.113281 34.242188 C 32.203125 34.015625 32.25 33.78125 32.25 33.539062 L 32.25 29.132812 C 32.25 29.03125 32.285156 28.945312 32.359375 28.875 C 32.429688 28.800781 32.515625 28.765625 32.617188 28.765625 L 37.023438 28.765625 C 37.125 28.765625 37.210938 28.800781 37.28125 28.875 C 37.355469 28.945312 37.390625 29.03125 37.390625 29.132812 L 37.390625 33.539062 C 37.390625 33.78125 37.4375 34.015625 37.53125 34.242188 C 37.621094 34.464844 37.753906 34.664062 37.925781 34.835938 C 38.097656 35.007812 38.296875 35.140625 38.523438 35.234375 C 38.746094 35.328125 38.980469 35.375 39.226562 35.375 L 43.628906 35.375 C 43.730469 35.375 43.816406 35.410156 43.890625 35.480469 C 43.960938 35.550781 43.996094 35.640625 43.996094 35.738281 Z M 43.996094 40.144531 " fill-opacity="1" fill-rule="nonzero"/><path fill="#db9a64" d="M 79.417969 42.421875 C 79.019531 42.417969 78.621094 42.449219 78.226562 42.523438 C 77.832031 42.597656 77.449219 42.707031 77.078125 42.855469 C 76.703125 43.003906 76.351562 43.1875 76.011719 43.40625 C 75.675781 43.625 75.363281 43.871094 75.078125 44.152344 C 74.789062 44.429688 74.53125 44.734375 74.304688 45.066406 C 74.074219 45.394531 73.882812 45.746094 73.722656 46.113281 C 73.5625 46.480469 73.441406 46.859375 73.355469 47.25 C 73.269531 47.644531 73.226562 48.039062 73.21875 48.441406 C 73.210938 48.84375 73.242188 49.238281 73.3125 49.632812 C 73.382812 50.027344 73.492188 50.414062 73.636719 50.785156 C 73.785156 51.160156 73.964844 51.515625 74.179688 51.851562 C 74.398438 52.191406 74.644531 52.503906 74.921875 52.792969 C 75.199219 53.082031 75.5 53.34375 75.832031 53.574219 C 76.160156 53.804688 76.507812 54 76.871094 54.160156 C 77.238281 54.324219 77.617188 54.449219 78.011719 54.535156 C 78.402344 54.621094 78.796875 54.671875 79.199219 54.679688 C 87.257812 54.53125 87.566406 42.765625 79.417969 42.421875 Z M 79.269531 51.011719 C 78.949219 51.003906 78.636719 50.933594 78.339844 50.804688 C 78.042969 50.675781 77.785156 50.496094 77.558594 50.261719 C 77.332031 50.03125 77.160156 49.761719 77.042969 49.460938 C 76.921875 49.160156 76.863281 48.847656 76.867188 48.527344 C 76.871094 48.203125 76.933594 47.890625 77.058594 47.59375 C 77.1875 47.292969 77.363281 47.03125 77.59375 46.804688 C 77.824219 46.574219 78.089844 46.398438 78.386719 46.277344 C 78.6875 46.152344 79 46.089844 79.320312 46.089844 C 79.644531 46.097656 79.957031 46.167969 80.25 46.296875 C 80.546875 46.425781 80.808594 46.609375 81.035156 46.839844 C 81.257812 47.074219 81.429688 47.339844 81.550781 47.640625 C 81.667969 47.941406 81.726562 48.253906 81.726562 48.574219 C 81.722656 48.898438 81.65625 49.210938 81.53125 49.507812 C 81.40625 49.804688 81.226562 50.070312 80.996094 50.296875 C 80.769531 50.523438 80.503906 50.699219 80.203125 50.824219 C 79.90625 50.949219 79.59375 51.011719 79.269531 51.011719 Z M 79.269531 51.011719 " fill-opacity="1" fill-rule="nonzero"/><path fill="#db9a64" d="M 68.832031 31.792969 C 60.707031 31.863281 60.566406 43.902344 68.703125 44.019531 C 69.101562 44.015625 69.496094 43.976562 69.886719 43.898438 C 70.277344 43.820312 70.652344 43.703125 71.019531 43.550781 C 71.386719 43.398438 71.738281 43.210938 72.070312 42.992188 C 72.398438 42.769531 72.707031 42.519531 72.988281 42.238281 C 73.269531 41.960938 73.523438 41.65625 73.746094 41.324219 C 73.96875 40.996094 74.15625 40.648438 74.308594 40.28125 C 74.464844 39.914062 74.582031 39.539062 74.664062 39.148438 C 74.746094 38.757812 74.785156 38.367188 74.789062 37.96875 C 74.796875 37.570312 74.761719 37.175781 74.6875 36.785156 C 74.613281 36.394531 74.503906 36.015625 74.359375 35.644531 C 74.210938 35.273438 74.03125 34.921875 73.8125 34.589844 C 73.597656 34.253906 73.351562 33.945312 73.078125 33.660156 C 72.800781 33.371094 72.5 33.117188 72.171875 32.890625 C 71.847656 32.660156 71.5 32.46875 71.136719 32.308594 C 70.773438 32.148438 70.398438 32.023438 70.007812 31.9375 C 69.621094 31.851562 69.226562 31.804688 68.832031 31.792969 Z M 68.648438 40.347656 C 68.332031 40.332031 68.027344 40.257812 67.738281 40.121094 C 67.445312 39.988281 67.191406 39.804688 66.976562 39.570312 C 66.757812 39.335938 66.59375 39.070312 66.480469 38.769531 C 66.367188 38.472656 66.3125 38.164062 66.320312 37.84375 C 66.332031 37.523438 66.398438 37.21875 66.527344 36.925781 C 66.65625 36.632812 66.832031 36.375 67.0625 36.152344 C 67.292969 35.933594 67.554688 35.761719 67.851562 35.640625 C 68.144531 35.523438 68.453125 35.460938 68.773438 35.464844 C 69.101562 35.464844 69.417969 35.53125 69.71875 35.660156 C 70.023438 35.789062 70.289062 35.96875 70.515625 36.203125 C 70.746094 36.441406 70.917969 36.710938 71.039062 37.015625 C 71.15625 37.324219 71.214844 37.640625 71.207031 37.96875 C 71.195312 38.296875 71.125 38.609375 70.992188 38.910156 C 70.855469 39.210938 70.667969 39.472656 70.425781 39.695312 C 70.1875 39.917969 69.914062 40.085938 69.605469 40.199219 C 69.296875 40.3125 68.976562 40.363281 68.648438 40.347656 Z M 68.648438 40.347656 " fill-opacity="1" fill-rule="nonzero"/><path fill="#db9a64" d="M 89.992188 31.792969 C 81.882812 32 81.707031 43.828125 89.90625 44.019531 C 97.960938 43.882812 97.96875 32.054688 89.992188 31.792969 Z M 89.847656 40.347656 C 89.527344 40.335938 89.21875 40.269531 88.921875 40.136719 C 88.628906 40.007812 88.371094 39.828125 88.148438 39.59375 C 87.925781 39.359375 87.753906 39.09375 87.636719 38.792969 C 87.519531 38.496094 87.464844 38.183594 87.46875 37.863281 C 87.476562 37.539062 87.542969 37.230469 87.671875 36.933594 C 87.796875 36.640625 87.976562 36.378906 88.207031 36.15625 C 88.441406 35.929688 88.703125 35.757812 89.003906 35.640625 C 89.300781 35.519531 89.613281 35.460938 89.933594 35.464844 C 90.257812 35.472656 90.566406 35.542969 90.859375 35.671875 C 91.15625 35.800781 91.414062 35.984375 91.636719 36.214844 C 91.859375 36.449219 92.027344 36.714844 92.144531 37.015625 C 92.261719 37.316406 92.320312 37.625 92.3125 37.949219 C 92.308594 38.269531 92.242188 38.578125 92.113281 38.875 C 91.984375 39.171875 91.804688 39.429688 91.574219 39.65625 C 91.34375 39.878906 91.078125 40.050781 90.78125 40.171875 C 90.480469 40.292969 90.171875 40.347656 89.847656 40.347656 Z M 89.847656 40.347656 " fill-opacity="1" fill-rule="nonzero"/><path fill="#db9a64" d="M 79.25 33.5 C 79.652344 33.5 80.046875 33.460938 80.441406 33.382812 C 80.835938 33.300781 81.214844 33.1875 81.585938 33.035156 C 81.957031 32.878906 82.308594 32.691406 82.644531 32.472656 C 82.976562 32.25 83.289062 31.996094 83.574219 31.714844 C 83.855469 31.433594 84.113281 31.125 84.335938 30.792969 C 84.5625 30.460938 84.753906 30.109375 84.910156 29.742188 C 85.066406 29.371094 85.1875 28.992188 85.269531 28.597656 C 85.351562 28.207031 85.394531 27.808594 85.398438 27.410156 C 85.40625 27.007812 85.371094 26.609375 85.296875 26.214844 C 85.226562 25.820312 85.117188 25.4375 84.96875 25.066406 C 84.820312 24.691406 84.636719 24.335938 84.421875 24 C 84.203125 23.660156 83.957031 23.347656 83.679688 23.058594 C 83.402344 22.769531 83.097656 22.511719 82.769531 22.28125 C 82.441406 22.050781 82.09375 21.855469 81.726562 21.691406 C 81.359375 21.53125 80.980469 21.40625 80.589844 21.316406 C 80.199219 21.226562 79.804688 21.179688 79.402344 21.167969 C 79 21.167969 78.605469 21.207031 78.210938 21.285156 C 77.816406 21.363281 77.4375 21.480469 77.066406 21.632812 C 76.695312 21.789062 76.34375 21.976562 76.007812 22.195312 C 75.675781 22.417969 75.363281 22.671875 75.078125 22.953125 C 74.792969 23.234375 74.539062 23.542969 74.316406 23.875 C 74.089844 24.207031 73.898438 24.554688 73.742188 24.925781 C 73.585938 25.292969 73.464844 25.675781 73.382812 26.066406 C 73.300781 26.460938 73.257812 26.855469 73.253906 27.257812 C 73.246094 27.660156 73.28125 28.058594 73.355469 28.453125 C 73.425781 28.847656 73.535156 29.230469 73.683594 29.601562 C 73.832031 29.976562 74.011719 30.332031 74.230469 30.667969 C 74.445312 31.003906 74.695312 31.320312 74.972656 31.609375 C 75.25 31.898438 75.554688 32.15625 75.882812 32.386719 C 76.210938 32.617188 76.558594 32.8125 76.925781 32.976562 C 77.292969 33.136719 77.671875 33.261719 78.0625 33.351562 C 78.453125 33.441406 78.847656 33.488281 79.25 33.5 Z M 77.609375 25.574219 C 77.964844 25.230469 78.386719 25.015625 78.875 24.925781 C 79.359375 24.839844 79.828125 24.890625 80.285156 25.082031 C 80.738281 25.273438 81.101562 25.574219 81.378906 25.984375 C 81.652344 26.394531 81.792969 26.847656 81.796875 27.339844 C 81.785156 27.667969 81.710938 27.980469 81.582031 28.277344 C 81.449219 28.574219 81.269531 28.839844 81.039062 29.070312 C 80.808594 29.300781 80.542969 29.484375 80.246094 29.613281 C 79.949219 29.746094 79.636719 29.816406 79.308594 29.828125 C 78.808594 29.820312 78.355469 29.671875 77.945312 29.386719 C 77.535156 29.101562 77.238281 28.726562 77.050781 28.261719 C 76.867188 27.800781 76.824219 27.324219 76.925781 26.832031 C 77.027344 26.34375 77.253906 25.925781 77.609375 25.574219 Z M 77.609375 25.574219 " fill-opacity="1" fill-rule="nonzero"/><path fill="#db9a64" d="M 107.734375 70.535156 C 110.570312 59.957031 109.160156 50.648438 106.144531 37.828125 C 103.144531 24.898438 94.660156 7.039062 77.867188 10.441406 C 69.785156 11.648438 60.175781 15.9375 52.457031 13.734375 C 48.046875 12.621094 43.601562 11.699219 39.222656 10.75 C 14.210938 5.28125 7.449219 38.996094 6.4375 59.269531 C 5.8125 72.839844 12.726562 84.078125 27.316406 76.207031 C 31.742188 73.71875 35.789062 70.71875 39.453125 67.203125 C 41.859375 64.828125 44.679688 63.164062 47.925781 62.210938 C 57.539062 59.796875 68.824219 60.074219 76.699219 67.59375 C 84.078125 75.035156 101.871094 86.863281 107.734375 70.535156 Z M 93.894531 74.550781 C 82.800781 71.214844 77.007812 59.402344 65.769531 57.957031 C 55.566406 56.351562 44.957031 56.933594 36.960938 64.507812 C 33.527344 67.808594 29.734375 70.628906 25.585938 72.96875 C 0.0429688 86.0625 12.574219 34.027344 17.738281 25.941406 C 26.429688 9.148438 36.113281 13.75 51.554688 17.292969 C 56.722656 18.839844 63.636719 17.683594 69.535156 16.039062 C 78.988281 13.464844 88.140625 11.421875 94.753906 20.765625 C 103.117188 29.664062 114.746094 80.800781 93.894531 74.550781 Z M 93.894531 74.550781 " fill-opacity="1" fill-rule="nonzero"/><g fill="#db9a64" fill-opacity="1"><g transform="translate(121.705858, 60.082318)"><g><path d="M 18.171875 0 L 11.375 -11.65625 L 6.875 -11.65625 L 6.875 0 L 3.15625 0 L 3.15625 -28.515625 L 12.359375 -28.515625 C 14.515625 -28.515625 16.332031 -28.144531 17.8125 -27.40625 C 19.300781 -26.675781 20.414062 -25.679688 21.15625 -24.421875 C 21.894531 -23.171875 22.265625 -21.742188 22.265625 -20.140625 C 22.265625 -18.171875 21.695312 -16.4375 20.5625 -14.9375 C 19.425781 -13.4375 17.726562 -12.441406 15.46875 -11.953125 L 22.625 0 Z M 6.875 -14.65625 L 12.359375 -14.65625 C 14.378906 -14.65625 15.894531 -15.148438 16.90625 -16.140625 C 17.914062 -17.140625 18.421875 -18.472656 18.421875 -20.140625 C 18.421875 -21.828125 17.921875 -23.132812 16.921875 -24.0625 C 15.921875 -24.988281 14.398438 -25.453125 12.359375 -25.453125 L 6.875 -25.453125 Z M 6.875 -14.65625 "/></g></g></g><g fill="#db9a64" fill-opacity="1"><g transform="translate(146.587728, 60.082318)"><g><path d="M 6.875 -28.515625 L 6.875 0 L 3.15625 0 L 3.15625 -28.515625 Z M 6.875 -28.515625 "/></g></g></g><g fill="#db9a64" fill-opacity="1"><g transform="translate(156.655059, 60.082318)"><g><path d="M 16.078125 0.28125 C 13.429688 0.28125 11.015625 -0.335938 8.828125 -1.578125 C 6.648438 -2.816406 4.925781 -4.546875 3.65625 -6.765625 C 2.394531 -8.992188 1.765625 -11.5 1.765625 -14.28125 C 1.765625 -17.0625 2.394531 -19.5625 3.65625 -21.78125 C 4.925781 -24.007812 6.648438 -25.742188 8.828125 -26.984375 C 11.015625 -28.222656 13.429688 -28.84375 16.078125 -28.84375 C 18.753906 -28.84375 21.179688 -28.222656 23.359375 -26.984375 C 25.546875 -25.742188 27.265625 -24.019531 28.515625 -21.8125 C 29.773438 -19.601562 30.40625 -17.09375 30.40625 -14.28125 C 30.40625 -11.46875 29.773438 -8.957031 28.515625 -6.75 C 27.265625 -4.539062 25.546875 -2.816406 23.359375 -1.578125 C 21.179688 -0.335938 18.753906 0.28125 16.078125 0.28125 Z M 16.078125 -2.953125 C 18.066406 -2.953125 19.859375 -3.414062 21.453125 -4.34375 C 23.054688 -5.269531 24.3125 -6.59375 25.21875 -8.3125 C 26.132812 -10.03125 26.59375 -12.019531 26.59375 -14.28125 C 26.59375 -16.570312 26.132812 -18.566406 25.21875 -20.265625 C 24.3125 -21.972656 23.066406 -23.289062 21.484375 -24.21875 C 19.898438 -25.144531 18.097656 -25.609375 16.078125 -25.609375 C 14.054688 -25.609375 12.253906 -25.144531 10.671875 -24.21875 C 9.097656 -23.289062 7.851562 -21.972656 6.9375 -20.265625 C 6.019531 -18.566406 5.5625 -16.570312 5.5625 -14.28125 C 5.5625 -12.019531 6.019531 -10.03125 6.9375 -8.3125 C 7.851562 -6.59375 9.109375 -5.269531 10.703125 -4.34375 C 12.296875 -3.414062 14.085938 -2.953125 16.078125 -2.953125 Z M 16.078125 -2.953125 "/></g></g></g><g fill="#db9a64" fill-opacity="1"><g transform="translate(188.82142, 60.082318)"><g><path d="M 17.4375 -14.6875 C 18.46875 -14.53125 19.410156 -14.109375 20.265625 -13.421875 C 21.128906 -12.742188 21.8125 -11.898438 22.3125 -10.890625 C 22.820312 -9.878906 23.078125 -8.800781 23.078125 -7.65625 C 23.078125 -6.207031 22.707031 -4.898438 21.96875 -3.734375 C 21.238281 -2.578125 20.171875 -1.664062 18.765625 -1 C 17.359375 -0.332031 15.703125 0 13.796875 0 L 3.15625 0 L 3.15625 -28.515625 L 13.375 -28.515625 C 15.3125 -28.515625 16.960938 -28.191406 18.328125 -27.546875 C 19.691406 -26.910156 20.710938 -26.046875 21.390625 -24.953125 C 22.078125 -23.867188 22.421875 -22.644531 22.421875 -21.28125 C 22.421875 -19.59375 21.960938 -18.191406 21.046875 -17.078125 C 20.140625 -15.972656 18.9375 -15.175781 17.4375 -14.6875 Z M 6.875 -16.203125 L 13.140625 -16.203125 C 14.878906 -16.203125 16.226562 -16.609375 17.1875 -17.421875 C 18.144531 -18.242188 18.625 -19.378906 18.625 -20.828125 C 18.625 -22.273438 18.144531 -23.40625 17.1875 -24.21875 C 16.226562 -25.039062 14.847656 -25.453125 13.046875 -25.453125 L 6.875 -25.453125 Z M 13.46875 -3.0625 C 15.320312 -3.0625 16.765625 -3.5 17.796875 -4.375 C 18.835938 -5.25 19.359375 -6.460938 19.359375 -8.015625 C 19.359375 -9.597656 18.8125 -10.847656 17.71875 -11.765625 C 16.625 -12.679688 15.164062 -13.140625 13.34375 -13.140625 L 6.875 -13.140625 L 6.875 -3.0625 Z M 13.46875 -3.0625 "/></g></g></g><g fill="#db9a64" fill-opacity="1"><g transform="translate(213.9079, 60.082318)"><g><path d="M 6.875 -25.5 L 6.875 -15.953125 L 17.265625 -15.953125 L 17.265625 -12.890625 L 6.875 -12.890625 L 6.875 -3.0625 L 18.5 -3.0625 L 18.5 0 L 3.15625 0 L 3.15625 -28.5625 L 18.5 -28.5625 L 18.5 -25.5 Z M 6.875 -25.5 "/></g></g></g><g fill="#db9a64" fill-opacity="1"><g transform="translate(234.901973, 60.082318)"><g><path d="M 20.703125 -28.515625 L 20.703125 -25.5 L 12.9375 -25.5 L 12.9375 0 L 9.203125 0 L 9.203125 -25.5 L 1.390625 -25.5 L 1.390625 -28.515625 Z M 20.703125 -28.515625 "/></g></g></g></svg>